<svg xmlns="http://www.w3.org/2000/svg" viewBox="0 0 600 162.81"><defs><style>.a{fill:#4a78bf;}</style></defs><path class="a" d="M600,40.31c-4.77-10.63-14.8-18-26.43-18A27.59,27.59,0,0,0,559,26.55C549,10.53,532,0,512.8,0c-21.94,0-40.87,13.77-50,33.74a27.55,27.55,0,0,0-8.3-1.29c-12.17,0-22.62,7.9-27.29,19.23-6.78-4-16.35-5.22-26.24-2.57-11.8,3.15-20.85,10.94-24.19,19.66a19,19,0,0,0-5.46-.83,19.51,19.51,0,0,0-13.59,5.64,20.63,20.63,0,0,0-15-6.57c-10.78,0-19.68,8.59-21.28,19.8-.28-.51-.58-1-.89-1.48-2.66-7.31-11-12.65-20.86-12.65a23.9,23.9,0,0,0-16.94,6.58c-4.86-8.61-13.58-14.37-23.57-14.37a25.87,25.87,0,0,0-13.14,3.59C240,58,229.31,51.06,217.07,51.06a32.8,32.8,0,0,0-23.6,10.26,18.2,18.2,0,0,0-19.32-.07c-2.83-12.56-13.24-21.89-25.68-21.89A24.49,24.49,0,0,0,137.4,42C133,30.47,122.49,22.34,110.25,22.34a27.56,27.56,0,0,0-14.57,4.21C85.63,10.53,68.69,0,49.48,0,28,0,9.32,13.26,0,32.63V162.81H600Z"/></svg>