<svg xmlns="http://www.w3.org/2000/svg" viewBox="0 0 600 240.98"><defs><style>.a{fill:#1f366b;}</style></defs><path class="a" d="M600,142.46V66.65c-4.71-7.38-12.54-12.24-21.45-12.24a25,25,0,0,0-18,7.81,13.87,13.87,0,0,0-14.71-.06c-2.15-9.55-10.07-16.65-19.54-16.65a18.67,18.67,0,0,0-8.42,2c-3.37-8.79-11.35-15-20.66-15a20.93,20.93,0,0,0-11.09,3.21c-7.65-12.2-20.54-20.21-35.16-20.21C434.31,15.55,419.9,26,413,41.23a21,21,0,0,0-6.32-1c-9.26,0-17.21,6-20.76,14.64-4.76-2.81-11.32-3.78-18.21-2.35-5.34-6.1-13.27-9.33-21.33-7.78-8.32,1.59-14.64,7.86-17.19,15.86-4.45-12.93-17-21.1-29.74-18.65a24.85,24.85,0,0,0-16.24,11.19,23.6,23.6,0,0,0-17.4-3.6,23,23,0,0,0-6.29,2.22C253.53,42.19,241,35,226.31,34c-12.34-.89-23.41,2.72-30.54,9-8.1-12.37-22.3-19.37-36.73-16.61a33.56,33.56,0,0,0-9.55,3.42c-15.38-21.61-41-33.64-67-28.65C59.73,5.49,42,21.82,33.75,43.11c-5.7-2.19-10.11-3.75-21.48,1.79S0,66.66,0,66.69V241H600V142.46Z"/></svg>