<svg xmlns="http://www.w3.org/2000/svg" viewBox="0 0 600 111.85"><defs><style>.a{fill:#eef5ff;}</style></defs><path class="a" d="M600,18l-.79.22c-4.59-9.33-13.64-15.69-24.06-15.69-10.11,0-18.91,6-23.61,14.85-.37,0-.74-.06-1.11-.06A20,20,0,0,0,533,28.18a32.87,32.87,0,0,0-49.9,2,51.43,51.43,0,0,0-31.82-11.14c-16.34,0-31,7.82-41,20.18a29.54,29.54,0,0,0-12.88-3c-17.5,0-31.69,15.39-31.69,34.39,0,.72.06,1.42.1,2.13a18.84,18.84,0,0,0-5.17-.75c-7.81,0-14.58,4.8-18,11.83a28.36,28.36,0,0,0-13.72-3.58,28.79,28.79,0,0,0-19.31,7.54,36.28,36.28,0,0,0-54-13.84A26.66,26.66,0,0,0,209.5,58.79a47.69,47.69,0,0,0-77.69-32.65A62.27,62.27,0,0,0,27.85,30a30.77,30.77,0,0,0-25-12.81c-1,0-1.9,0-2.84.14v94.54H600Z"/></svg>