<svg xmlns="http://www.w3.org/2000/svg" viewBox="0 0 600 197.56"><defs><style>.a{fill:#31508c;}</style></defs><path class="a" d="M600,75.08a28.51,28.51,0,0,0-50.79-17.79A17.34,17.34,0,0,0,535.43,51a17.82,17.82,0,0,0-12.68,5c-.9-11.34-12.35-20.32-26.38-20.32a30.53,30.53,0,0,0-15,3.82,36.69,36.69,0,0,0-57.1-18,47.92,47.92,0,0,0-86.55,15,37.25,37.25,0,0,0-46.88,23.2,13.17,13.17,0,0,0-10.55-5.27,13.38,13.38,0,0,0-4.07.64,21.42,21.42,0,0,0-31.6-13.26,21.46,21.46,0,0,0-19-13.35,12.55,12.55,0,0,0-21.45-6.73,31.61,31.61,0,0,0-32.31-3.59,36.39,36.39,0,0,0-63.3,3.77,23.08,23.08,0,0,0-3.55-.3A22.64,22.64,0,0,0,82.39,44.25a22.24,22.24,0,0,0,.44,4.42h-.25a22.64,22.64,0,0,0-22.3,18.86A20.92,20.92,0,0,0,44.83,81.07,27.1,27.1,0,0,0,0,68.61v129H600Z"/></svg>