<svg xmlns="http://www.w3.org/2000/svg" viewBox="0 0 1298.6278 409.5648" fill="rgba(255,255,255,0.3)">
  <path d="M1298.34,406.0028c-.2535-1.4734-1.2109-3.4048-1.5767-4.7574-.7-2.635-1.81-5.1442-2.4571-7.7988q-2.7486-11.1964-5.5-22.4031l-1.6267-6.7688c-.09-.4487-.1829-.8679-.2828-1.2082l-.0009-.0037-.0023-.0073c-.0214-.0713-.0408-.1318-.0619-.2017-.8264-3.3869-1.6416-6.7763-2.7033-10.1-.5852-1.88-2.02-6.5141-2.036-6.968-.0193-.7546-1.7981-4.7873-2.0158-5.4987-.085-.2725-1.1018-2.0586-1.7054-3.594l-.0108.0034-.9019-2.8a35.0148,35.0148,0,0,1-1.0636-4.1592c-.1085-.52-.2171-1.041-.3252-1.5588-.338-1.6744-.6284-3.2361-1.0893-4.73a16.1177,16.1177,0,0,0-1.0179-2.8071,22.4818,22.4818,0,0,1-1.5465-4.0894l-.5085-1.4174c-.2677-.7706-.604-1.6763-.8353-2.2527-.0363-.1651-.0657-.2986-.1116-.5076a11.5453,11.5453,0,0,0-1.0538-2.4919c-1.8567-4.9734-3.8549-9.9063-5.8843-14.8238-2.1373-4.8784-4.2923-9.75-6.8213-14.4507-1.7006-3.3249-3.6062-6.4934-5.02-10.009a172.48,172.48,0,0,0-9.0037-18.0627c-1.528-2.7952-3.2712-4.2044-4.9139-8.1888-.8669-1.6467-2.3558-4.8566-3.39-6.37-1.9053-2.8074-3.1719-4.0122-5.2139-6.7226l-1.708-2.2549-1.7634-2.2163-3.51-4.4419c-1.1842-1.47-2.4173-2.9026-3.618-4.3587-1.2083-1.45-2.3969-2.916-3.6741-4.31a36.2854,36.2854,0,0,1-2.6482-3.4675l-.9264-1.3294a47.94,47.94,0,0,0-3.0182-3.9043,16.6324,16.6324,0,0,0-2.1012-2.1928,29.6927,29.6927,0,0,1-3.2058-3.085c-.033-.0322-1.9419-1.8967-2.8443-2.7778l-.3206-.4214a10.1689,10.1689,0,0,0-2.081-1.7979,175.9275,175.9275,0,0,0-25.3888-20.0288c-3.24-1.9507-6.42-3.8745-9.5152-6.1023-1.3578-1.0061-2.7322-1.9965-4.1316-2.9509q-2.1331-1.3725-4.3028-2.6992c-2.8647-1.8193-5.8653-3.3941-8.8076-5.0737-2.7846-1.5777-5.0029-1.8907-8.5821-4.3326a70.9541,70.9541,0,0,0-6.3506-3.5529c-1.5894-.64-2.8121-1.0537-4.0437-1.4446-1.2243-.4058-2.4616-.78-4.0863-1.3311a217.84,217.84,0,0,0-22.03-6.3459c-1.4288-.344-2.85-.7622-4.2593-1.2329-.5212-.1739-1.0463-.3384-1.5714-.4951a41.4111,41.4111,0,0,0-4.8623-1.3091,14.1163,14.1163,0,0,0-3.058-.4178,23.2851,23.2851,0,0,1-4.4227-.4179c-.0458-.0051-2.6927-.2988-3.9439-.4378l-.5112-.1345a9.1039,9.1039,0,0,0-2.7369-.1506,209.3416,209.3416,0,0,0-32.1818-.4817,98.9546,98.9546,0,0,1-11.2092.6946c-3.3533-.0005-6.7178.1154-10.078.3125l-10.0481.9091c-3.1535.3409-5.13,1.3436-9.4166,1.2767a71.5094,71.5094,0,0,0-7.1419.5232c-3.3.6626-4.931,1.1586-8.1968,1.9606-7.2794,1.6851-14.553,3.3436-21.77,5.1895a35.1889,35.1889,0,0,1-4.2343.7515c-.5276.07-1.0564.1394-1.5819.2087a44.4673,44.4673,0,0,0-4.7879.7964,16.0909,16.0909,0,0,0-2.873.8057,23.4844,23.4844,0,0,1-4.1875,1.2451c-.0434.0127-2.5532.76-3.7394,1.1135-.1671.0234-.3023.0425-.5137.072a11.48,11.48,0,0,0-2.5578.8572c-10.1214,3.0823-20.282,6.1914-30.0388,10.1865a90.0659,90.0659,0,0,1-10.3735,3.844c-6.3846,1.7373-12.6112,4.0239-18.854,6.1831-2.9471,1.0152-4.6328,2.3941-8.7608,3.231-1.7453.5237-5.1273,1.1968-6.7784,1.8652-3.0593,1.2378-4.5191,2.0735-7.5623,3.3411-6.767,2.8215-13.6059,5.4485-20.4611,7.9731a33.7332,33.7332,0,0,1-4.0569,1.1538l-1.5226.3492c-1.6377.3522-3.1557.6774-4.6157,1.13a15.4,15.4,0,0,0-2.7458.99,19.9338,19.9338,0,0,1-4.0088,1.4709l-3.6086,1.2383-.4994.0894a10.9923,10.9923,0,0,0-2.4649.9423c-9.8213,3.2815-19.7538,6.1358-29.572,9.3663a73.4932,73.4932,0,0,1-10.46,2.8593c-3.211.4744-6.3931,1.1216-9.5724,1.7388l-9.5326,1.7681c-3.01.4558-4.8869,1.4924-9.0093,1.55-1.7693.2114-5.1641.0872-6.8782.4011-3.1853.5469-4.7536,1.0833-7.9579,1.55-3.5585.5257-7.1207,1.1163-10.7082,1.4231-3.5842.3379-7.1693.7627-10.7653.9234a32.8055,32.8055,0,0,1-4.1549-.0789l-1.5349-.1c-1.6445-.1016-3.1656-.29-4.67-.3184a14.8964,14.8964,0,0,0-2.8706.0752,20.85,20.85,0,0,1-4.2053.1712c-.0109,0-.1769.0046-.4383.0117-.2618.0115-.6178-.001-1.01-.0056-.7844-.0105-1.7123-.0227-2.308-.0308l-.4931-.0842a10.64,10.64,0,0,0-2.5967.0569l-3.8266-.0569c-1.2758-.0213-2.5439-.1294-3.8166-.19l-7.6316-.4273c-5.06-.4848-10.15-.7793-15.1976-1.3391-1.7733-.1694-3.55-.28-5.31-.5134a46.8044,46.8044,0,0,1-5.2285-1.113c-1.5321-.4432-3.0846-.8052-4.6164-1.2315-1.5222-.4582-3.0493-.8938-4.5795-1.3174l-4.5913-1.257-4.4973-1.4966c-1.4108-.4746-2.6419-.6919-3.9741-1.0166a18.0248,18.0248,0,0,1-4.4375-1.9107c-1.5618-.7575-4.4387-2.3091-5.9354-3.0488-2.8543-1.2356-4.4144-1.6072-7.2883-2.8486a101.6315,101.6315,0,0,1-17.88-10.6831,22.7593,22.7593,0,0,1-2.9949-2.69l-1.0334-1.0776c-1.1082-1.149-2.0855-2.2671-3.1395-3.2774a17.8329,17.8329,0,0,0-2.0954-1.84,18.6351,18.6351,0,0,1-3.0456-2.7415c-.03-.03-1.7862-1.7631-2.6161-2.5825l-.2876-.3955a10.2458,10.2458,0,0,0-1.8288-1.779c-6.9368-7.2569-13.1053-15.3675-19.7164-23.3863a75.9256,75.9256,0,0,1-6.6215-8.696c-3.428-5.5862-7.2815-10.94-11.0374-16.3733-1.78-2.564-3.536-3.8315-5.4806-7.5862-.9859-1.54-2.5739-4.6323-3.6763-6.0483-2.0506-2.6214-3.2976-3.79-5.4043-6.3765-4.7052-5.7388-9.3935-11.5305-14.2068-17.2344-.9051-1.1062-1.7354-2.2856-2.5545-3.4748l-.9046-1.32c-.957-1.4263-1.846-2.7522-2.8321-3.9771a13.1145,13.1145,0,0,0-2.014-2.229,22.8682,22.8682,0,0,1-3.0538-3.1775c-.0312-.0334-1.83-1.969-2.6808-2.8838-.0964-.1408-.1745-.2546-.2965-.4328a10.1991,10.1991,0,0,0-1.9742-1.8831l-5.6555-5.7124c-1.9171-1.8752-3.9042-3.6868-5.8636-5.521-.9878-.9092-1.9623-1.8315-2.9692-2.72l-3.0962-2.5852c-2.0867-1.6963-4.13-3.438-6.3083-5.0168a101.7072,101.7072,0,0,1-8.98-6.836c-2.5765-2.178-5.25-4.26-7.9542-6.3052-2.7572-1.969-5.6116-3.8054-8.4081-5.7236a32.14,32.14,0,0,0-3.8333-2.1658,28.1322,28.1322,0,0,1-4.3934-2.8444,71.2818,71.2818,0,0,0-6.0794-4.0333c-3.106-1.4763-4.7528-2.0373-7.93-3.3537a215.3294,215.3294,0,0,0-21.551-7.867c-1.4054-.43-2.7937-.94-4.1654-1.509-.5089-.2065-1.019-.4133-1.5259-.6191-1.6505-.6226-3.19-1.201-4.7506-1.64a14.8548,14.8548,0,0,0-3.0348-.62,33.1088,33.1088,0,0,1-4.4728-.7622l-4.0068-.6426c-.169-.0466-.3058-.0842-.52-.1433a12.3956,12.3956,0,0,0-2.8-.2434c-2.7312-.3752-5.4949-.519-8.2442-.7561C358.4083.12,355.69-.0785,352.8387.0333c-2.8606-.0015-5.5344.2727-8.2816.4675-2.6772.3174-5.3838.5857-8.0169,1.0415-1.8491.3047-3.6866.6072-5.53.9107a51.2781,51.2781,0,0,1-5.5689.6487c-6.6693.434-13.2882,1.4833-19.8711,2.5532-3.114.4782-5.0269,1.5713-9.28,1.7317-1.8267.219-5.3155.4113-7.0758.8193-3.2588.7651-4.84,1.4336-8.0815,2.28-7.2007,1.9727-14.4149,3.8535-21.6793,6.1546-1.4.4638-2.8254.7138-4.311,1.0913-.5459.13-1.093.26-1.6368.3891a33.12,33.12,0,0,0-4.7889,1.3875,16.4885,16.4885,0,0,0-2.78,1.1824,23.0361,23.0361,0,0,1-4.0461,1.7868L238.25,24.0142l-.5105.1316a9.1475,9.1475,0,0,0-2.4346,1.24l-7.2421,3.5091c-2.4034,1.19-4.8659,2.2668-7.1785,3.63q-3.5138,1.9586-6.9963,3.9681l-3.4648,2.0346c-1.1559.6756-2.2373,1.4749-3.35,2.219A87.0523,87.0523,0,0,1,197.6,46.7916c-2.9378,1.6274-5.7646,3.4563-8.5968,5.2837l-4.226,2.7793-4.093,2.9612c-2.5786,1.8615-3.83,3.6816-7.6174,5.726-1.5182,1.0628-4.537,2.87-5.9151,4.0657-2.5347,2.2327-3.6966,3.4868-6.1662,5.7842q-4.0335,3.9207-8.145,7.7434c-1.3878,1.2573-2.7045,2.5862-4.0251,3.91l-3.9766,3.9553a35.4982,35.4982,0,0,1-3.2872,2.8032c-.4271.3238-.8391.6641-1.245,1.0052-1.3245,1.0859-2.5558,2.0947-3.6783,3.1916a16.2416,16.2416,0,0,0-2.0487,2.187,22.6328,22.6328,0,0,1-2.9552,3.2425l-.3121.3337c-.19.1953-.4383.4724-.7084.78L129.01,104.349l-.3985.3342a11.57,11.57,0,0,0-1.7235,2.09l-5.2825,5.9776-5.107,6.1206c-3.4426,4.0522-6.5838,8.3362-9.6917,12.636a102.2882,102.2882,0,0,1-6.6081,8.958c-2.2365,2.4763-4.2739,5.112-6.2869,7.77s-4.0145,5.333-5.9422,8.0468c-1.8368,2.5647-2.4626,4.615-5.363,7.7811-1.1043,1.5376-3.4679,4.2717-4.4182,5.8869-1.8195,2.9671-2.269,4.6531-3.8218,7.7039L71.8128,182.74l-2.3521,5.1336c-1.567,3.4189-3.2163,6.8069-4.61,10.27a35.4191,35.4191,0,0,1-1.9758,3.8379l-.7956,1.39a39.56,39.56,0,0,0-2.31,4.2937,16.1311,16.1311,0,0,0-1.0711,2.7885,22.4978,22.4978,0,0,1-1.5124,4.1045c-.0164.0425-.9648,2.4883-1.4131,3.6446l-.2584.4519a9.7351,9.7351,0,0,0-.857,2.5588c-1.76,4.9876-3.6507,9.94-5.3408,14.9463-1.6446,5.0176-3.2943,10.04-4.6707,15.1348a84.0226,84.0226,0,0,1-3.1933,10.6c-1.2744,3.0642-2.3476,6.1982-3.3775,9.3491l-3.0511,9.47c-.9717,2.9739-.8387,5.1668-2.6269,8.9963-.6147,1.72-2.0887,4.8624-2.5341,6.5977-.8361,3.2136-1.0078,4.8945-1.7537,8.13-1.6588,7.1894-3.5426,14.324-5.3014,21.4812a34.3513,34.3513,0,0,1-1.3487,4.0359c-.1892.4909-.3788.9831-.5672,1.4724-1.1732,2.9556-2.2407,5.499-2.3632,8.5806a23.7656,23.7656,0,0,1-1.3932,8.1574c-1.8007,4.658-2.5923,9.5469-3.7959,14.3938-1.932,7.68-3.69,14.5042-6.0981,22.0442-.7049,2.1892-1.9492,4.2805-2.2465,6.513-.7568,5.58-2.9383,10.2165-4.69,15.935A9.6228,9.6228,0,0,0,0,409.5648H16.9794c.3326-1.9422.6481-3.8882,1.06-5.8135.7516-3.5466,1.9092-7.0093,2.545-10.5686.5046-2.832-.0394-5.9248.8182-8.6077.9155-2.8588.9221-5.84,2.3009-8.7978,1.9757-4.2656,2.3955-9.2163,3.6155-13.84q1.8892-7.0594,3.8-14.1982c1.2739-4.7488,2.6016-9.4881,4.0511-14.1661h0c.2269-.7727.456-1.5527.6824-2.3239,1.0092-3.209,1.7688-6.5113,2.4862-9.8062.7454-3.2851,1.44-6.5657,2.2772-9.7414,2.2845-8.8411,4.8728-17.584,7.3759-26.3543l7.7861-26.1938c.48-1.5972,1.3443-4.3233,2.2147-6.6814.8659-2.36,1.6466-4.3911,1.8053-4.6665,2.3425-4.04,3.1325-8.929,4.8866-13.3321.5956-1.5586,1.1993-3.1382,1.7976-4.7043l.0474-.1238a49.1153,49.1153,0,0,0,2.1474-5.1748c.25-.8066.5394-1.5422.8041-2.314,2.0521-4.8933,4.0336-9.8313,6.4017-14.528.3373-.7168.6778-1.44,1.0145-2.1558.7326-1.4832,1.4078-2.998,2.0483-4.53q.9933-2.2691,1.9855-4.5359l1.9326-4.5344.9785-2.2414c.3325-.74.722-1.4351,1.09-2.1438,2.11-3.886,4.0876-7.9029,6.4984-11.5318,1.1828-1.8586,2.26-3.7116,3.5281-5.5771l3.86-5.6c5.1442-7.4693,10.4679-14.7913,15.7853-22.1214,1.9277-2.7063,7.1551-8.8147,7.6193-9.2356a38.2384,38.2384,0,0,0,4.7745-5.1362c1.4742-1.8557,2.8852-3.7956,4.4381-5.5727,1.0763-1.2674,2.2361-2.4866,3.3616-3.7178l.0895-.0969a42.9371,42.9371,0,0,0,3.884-4.003c.513-.67,1.0375-1.2595,1.552-1.8916,1.778-1.9651,3.7045-3.78,5.5645-5.6565,1.8867-1.8493,3.7469-3.7224,5.6837-5.5066.5846-.5349,1.1747-1.0752,1.7582-1.6091,2.4838-2.188,4.8015-4.5788,7.0775-6.9971,2.3384-2.3457,4.6742-4.674,7.0528-6.8645A339.13,339.13,0,0,1,210.3646,53.98c1.378-.896,3.791-2.3428,5.9306-3.5923,2.2-1.1419,4.1236-2.0911,4.4221-2.1858a30.6145,30.6145,0,0,0,6.282-2.96c1.0219-.5774,2.0023-1.25,3.0515-1.7837,1.0413-.5491,2.0884-1.0859,3.1518-1.5713,1.4944-.69,3.0092-1.3887,4.5109-2.0815.04-.0183.08-.0374.1209-.0557a43.3815,43.3815,0,0,0,5.0731-2.1836c.7441-.3769,1.4659-.677,2.1958-1.02l7.3355-2.8523,3.6733-1.3884c1.2305-.4717,2.3906-.761,3.5868-1.1446.7034-.2243,1.4312-.4653,2.19-.6491,6.1962-1.6358,12.5361-4.0188,18.8373-5.5677,8.7557-2.1616,17.6411-3.9741,26.5421-5.62,8.9029-1.637,17.836-3.1169,26.7306-4.419,1.6249-.2084,4.4356-.5395,6.8894-.6906s4.5829-.2666,4.8832-.2122c4.5295.6236,8.8967-.3074,13.4937.0694,1.5938.0661,3.2021.2946,4.8.4289.0488.0039.0973.012.1461.0161,1.6743.313,3.4747.656,5.2808.8343.8134.0244,1.5643.1435,2.3429.2421a104.5576,104.5576,0,0,1,14.8541,3.6878l2.2.7034c6.0382,2.125,12.4128,3.7333,18.2434,6.2365,4.0405,1.7371,8.0217,3.6406,11.9128,5.7342,3.9046,2.0717,7.7347,4.2768,11.48,6.6767l5.6148,3.6218c.9327.6084,1.8855,1.1878,2.8041,1.8172l2.7263,1.9314,5.4762,3.8369c1.8109,1.3,3.554,2.6931,5.3466,4.0232.6535.4924,1.5239,1.18,2.4681,1.9416.47.3836.96.7835,1.452,1.1848.4715.427.9449.8558,1.4029,1.27,1.8265,1.665,3.3843,3.1287,3.5748,3.3755a22.904,22.904,0,0,0,2.3159,2.5439c.8236.8094,1.6615,1.6226,2.5418,2.3963,1.75,1.5588,3.59,3.06,5.26,4.6929l3.44,3.5908.09.0949a42.1774,42.1774,0,0,0,3.7151,4.1006c.6168.5674,1.1447,1.1485,1.72,1.718l5.2139,5.9346q2.5032,3.0663,4.9506,6.1638l1.4987,1.85c1.971,2.6716,4.1581,5.1953,6.3749,7.6789,2.1707,2.532,4.3626,5.0315,6.39,7.5782,11.1556,14.2961,21.4042,29.4426,32.7207,44.0354,1.0415,1.3357,2.7241,3.6843,4.21,5.77,1.4952,2.0857,2.7745,3.9082,2.9286,4.1975,2.1371,4.29,5.9052,7.7646,9.0455,11.57,1.0965,1.35,2.251,2.69,3.4144,4.0085l.0912.1047a37.7612,37.7612,0,0,0,3.84,4.4693c.65.612,1.26,1.186,1.8888,1.7781,3.8957,4.0495,7.9574,7.9853,12.243,11.6953.6306.5747,1.3069,1.1079,1.9668,1.6484,5.4407,4.6462,11.9417,8.0525,18.0515,11.334l3.21,1.6821c1.0611.58,2.182,1.0237,3.2695,1.5427l6.57,3.0088,6.7175,2.5576c1.1238.41,2.23.8848,3.3687,1.2395l3.4157,1.0616a170.9656,170.9656,0,0,0,27.7169,6.303c1.7155.21,4.6344.6694,7.2053,1.1025,2.5675.4763,4.8017.7178,5.1149.8276a33.8583,33.8583,0,0,0,7.221,1.1472c2.4694.1465,4.9668.0769,7.4148.28,1.7246.12,3.474.2842,5.2079.3526l.1372.0048a46.3414,46.3414,0,0,0,5.7943.3457c.877-.0466,1.6981-.0317,2.5452-.0524,1.3789.0656,2.7556.0786,4.1315.0754l4.128.0334,4.1268.0591c1.3754.0225,2.7457-.0261,4.1186-.0278l2.4846-.05c1.7262-.0031,3.4571-.0722,5.186-.18,1.7244-.1577,3.446-.3625,5.1611-.5747l5.12-.647q2.541-.3443,5.0446-.6831l6.9578-.8327,6.9313-1.0162c4.6313-.6074,9.2135-1.5268,13.8169-2.3056,9.1757-1.8049,18.2707-3.8435,27.1882-6.4409,3.293-.8755,11.2758-2.9239,11.9245-2.9759a29.4078,29.4078,0,0,0,7.019-1.6189c2.31-.7761,4.6243-1.6181,6.9416-2.3156,1.6313-.4947,3.2849-.9964,4.9242-1.4934l.13-.0394a39.31,39.31,0,0,0,5.5121-1.5559c.7983-.3354,1.5651-.5942,2.3446-.8955,5.19-1.6286,10.3447-3.301,15.5232-4.8735l2.325-.7571c6.5064-1.9709,12.7266-5.0137,18.9048-7.3628q25.6941-9.6268,51.3937-19.2561c3.1214-1.1958,10.843-3.5876,11.4706-3.678,4.6357-.5483,9.0027-2.853,13.5669-4.135l4.83-1.4184.1565-.0432a47.5339,47.5339,0,0,0,5.4046-1.3511c.793-.2974,1.5531-.52,2.3271-.7844,2.56-.7251,5.1428-1.3455,7.7227-1.9656,2.5812-.6133,5.1562-1.2451,7.7535-1.7449l2.34-.5024c1.6314-.3184,3.253-.7012,4.8671-1.1221,1.6183-.3979,3.2338-.8079,4.8406-1.2429s3.2105-.87,4.8037-1.3013c1.5954-.4243,3.1952-.7666,4.7821-1.102,2.2077-.4488,4.4143-.9134,6.6272-1.3343l6.656-1.143,3.33-.5638,3.34-.4692,6.6806-.9419c8.9245-1.0307,17.8595-2.0017,26.8134-2.4988a103.2372,103.2372,0,0,1,11.8575.0176,24.856,24.856,0,0,0,3.4274.3911c1.1533.0955,2.3187.126,3.4907.1306,2.3427.0164,4.7171-.0981,7.0457.0511,1.6349.1462,3.2922.2946,4.935.4419l.13.0114a50.0686,50.0686,0,0,0,5.4712.6543c.8306.0335,1.6039.1233,2.4054.18,2.5858.354,5.1943.69,7.7474,1.0989,2.5075.4463,5.0016.968,7.4722,1.5911l2.24.55c6.1608,1.7175,12.64,2.8735,18.6381,4.9768a182.23,182.23,0,0,1,24.3147,10.6523c7.9327,4.09,15.5933,8.6431,23.1039,13.4341a103.1539,103.1539,0,0,1,9.44,7.0481c2.99,3.4578,7.2033,5.7983,10.6465,8.9351q.92.8107,1.8487,1.63l1.8,1.6927c.0314.03.0637.06.0954.09a41.401,41.401,0,0,0,3.8858,3.8777c.6361.5332,1.187,1.0811,1.7836,1.6172a156.2454,156.2454,0,0,1,10.4666,11.6021c.4961.6052.9969,1.2163,1.4922,1.82,4.0751,5.0949,8.6954,9.9055,12.5857,15.0151A264.6282,264.6282,0,0,1,1230.9182,258.8c4.527,7.7292,8.7135,15.67,12.832,23.6723,1.46,2.9622,4.6215,10.313,4.6946,10.9573a31.08,31.08,0,0,0,2.3765,6.5757c.946,2.1694,1.9945,4.3228,2.834,6.5261.5969,1.5489,1.2038,3.1182,1.7549,4.6958l.0449.1253a43.0275,43.0275,0,0,0,1.7524,5.3015c.3555.7668.64,1.5034.956,2.2558,1.6779,5.0408,3.3469,10.075,4.7386,15.1915.2253.7644.4528,1.5361.6775,2.2993q.6664,2.3412,1.41,4.6767l-.0017,0,.0195.0581c.0564.1768.12.3513.177.5279q.6246,1.9211,1.2979,3.8249c.0537.1509.1.3049.1545.4556.4711,1.2973.9214,2.5966,1.3643,3.895.1352.3965.2728.7925.404,1.189.482,1.448.9471,2.895,1.3734,4.3364.7486,2.5586,1.4712,5.1262,2.1852,7.6965l.81,3.0051,1.4328,5.3719,1.3447,5.3994c.02-.01.0408-.0169.0612-.0264q1.83,7.191,3.5319,14.4219a78.5773,78.5773,0,0,1,.9369,10.3152c.1433,2.7136.299,5.4.6415,8.0161h17.9054C1298.3965,408.3612,1298.6035,407.48,1298.34,406.0028Z"/>
  <path d="M1078.009,406.4725a30.0133,30.0133,0,0,0-2.0848-3.3167,32.5486,32.5486,0,0,0-2.3035-3.11l-2.44-2.9428-2.55-2.7627c-.441-.479-.8631-.9839-1.309-1.4519l-1.3506-1.3821c-.9038-.9136-1.7734-1.8845-2.7026-2.7583a53.3046,53.3046,0,0,0-5.8024-4.8987,26.8886,26.8886,0,0,0-2.5458-1.59c-.8908-.4559-1.804-.8677-2.7-1.2937-.897-.4239-1.78-.855-2.625-1.3279a16.8525,16.8525,0,0,1-2.4468-1.4842c-.8129-.6025-1.6535-1.1508-2.5105-1.6684-.8764-.4754-1.753-.9509-2.6372-1.4307-.8842-.4773-1.7636-.9817-2.64-1.5212a23.3509,23.3509,0,0,1-2.6139-1.7556c-4.949-3.8548-11.2642-5.8811-17.0449-8.3743-5.9039-2.5784-11.9444-4.9131-18.0555-7.0064-6.1047-2.12-12.2623-4.0761-18.423-5.8957-1.0157-.292-2.0412-.5867-3.0551-.8779-8.4767-2.5-17.4208-3.5-25.9-4.8482a333.0688,333.0688,0,0,0-35.6886-3.84c-6.0342-.3086-11.9856-.2471-17.9447-.2442l-8.9268.316-2.23.0883-2.2252.1563-4.4482.3267c-1.0866.082-2.5613.164-4.1754.2392l-4.9984.3279c-3.2784.2017-6.1212.3337-6.5336.3022a46.9,46.9,0,0,0-9.2044.5142c-3.0963.4021-6.1763,1.0747-9.26,1.4163-2.1715.2443-4.3671.5256-6.5337.8569l-.1716.0247a64.5975,64.5975,0,0,0-7.2813.885l-3.1432.6716c-3.4294.5854-6.8769,1.0872-10.2961,1.6907L810.946,350.26l-3.0794.59c-2.1449.374-4.2833.8232-6.4127,1.3161-2.1223.5169-4.23,1.0957-6.3308,1.6763-4.2087,1.14-8.3421,2.4326-12.4451,3.5046-11.388,3.0249-22.7329,6.1482-33.987,9.5105-5.6168,1.6936-11.2467,3.4063-16.8084,5.1875l-16.5608,5.3162c-2.0115.6443-5.485,1.6023-8.5516,2.37-3.0668.7641-5.7274,1.3361-6.1224,1.3625a50.6849,50.6849,0,0,0-8.6429,1.5273c-2.8667.7066-5.7662,1.396-8.666,1.877-2.0387.3528-4.1294.5715-6.1873.8677-.06.0088-.1207.0141-.1808.0227-2.2071.1169-4.5779.2771-6.9128.5908-1.0344.1946-2.0113.3147-3.0214.4275a185.661,185.661,0,0,1-19.8122.4529c-.9931-.0366-1.9957-.0738-2.9869-.11-8.2729-.4341-16.7467-.1172-24.8833-.8955a299.9638,299.9638,0,0,1-33.6762-5.4363c-11.1549-2.4109-22.2152-5.3789-33.2519-8.5354-2.0294-.5547-5.4405-1.727-8.44-2.7724-2.9931-1.0689-5.5581-2.07-5.9094-2.2588a47.1353,47.1353,0,0,0-8.2367-3.4314c-2.8559-.9859-5.7894-1.8428-8.58-2.9773l-5.9359-2.3945-.1557-.0647a63.9423,63.9423,0,0,0-6.5182-2.8909c-1.0231-.3413-1.9573-.7239-2.9364-1.08q-9.3543-3.9884-18.4823-8.4638c-.9194-.4393-1.8476-.8826-2.7652-1.3211-7.616-3.8125-15.77-6.7173-23.4278-10.238-10.6333-4.8675-21.3885-9.8748-32.629-14.1389-5.6179-2.1287-11.3343-4.1163-17.2163-5.7276a135.401,135.401,0,0,0-17.9726-3.831c-.5572-.0894-1.2136-.1944-1.9373-.31-.73-.094-1.5275-.1968-2.3609-.304-1.6692-.2033-3.4651-.52-5.18-.6469l-4.5229-.459c-1.18-.1-1.986-.1734-2.19-.219-5.961-1.3069-12.4966-.5774-18.9425-.3789q-1.7009.03-3.44.1592c-1.1565.0864-2.3066.1218-3.4671.2588l-.1831.0183a43.7968,43.7968,0,0,0-7.7779.8371c-1.1542.3045-2.2472.5254-3.3651.7952a112.7265,112.7265,0,0,0-21.2766,6.824c-1,.4651-2.01.9345-3.0091,1.3989-1.0615.46-2.0872.9736-3.0935,1.5163-.9643.5167-1.9137,1.0188-2.8738,1.5792l-.0016-.003c-.0279.0161-.0549.0344-.0828.0506-.0226.0131-.045.0246-.0676.038l-.12.0762c-1.2266.7166-2.4271,1.49-3.6067,2.3013-.0881.0569-.174.1189-.2616.1767q-1.69,1.1755-3.3082,2.4615-.6786.5265-1.338,1.0769c-.0644.0534-.1308.1045-.195.1584q-.7689.645-1.5149,1.315a85.6727,85.6727,0,0,0-6.3309,6.2129c-.8667.9445-1.6961,1.9121-2.5053,2.8916-.9067,1.0678-1.785,2.1523-2.58,3.2871-1.6521,2.0959-3.0124,4.3213-4.4314,6.521-.7324,1.0927-1.29,2.2419-1.9418,3.361-.6125,1.13-1.2942,2.2449-1.8456,3.39l-1.672,3.4314-.8333,1.7168-.7443,1.732c.0312.0058.06.0149.0917.021a191.3066,191.3066,0,0,0-6.9038,18.6076c-3.1194,8.4883-7.7042,16.59-9.9574,24.9842a14.4413,14.4413,0,0,0-.4634,4.3967h20.5692a13.4066,13.4066,0,0,0,.6872-1.8631c.4992-1.7773.5453-4.4311.9061-6.1274.775-3.25,1.0058-6.6421,1.8989-9.8728a156.2561,156.2561,0,0,1,9.3346-26.1309l1.9881-3.96,1.8373-3.1233c.28-.436.5348-.851.72-1.2085l.0022-.0036.0017-.003c.055-.09.1005-.17.1537-.258a87.4109,87.4109,0,0,1,6.8366-9.2246,34.8464,34.8464,0,0,1,5.5787-5.4939,5.2483,5.2483,0,0,0,.9426-.7507l.6744-.64c.2556-.2132.5232-.4366.791-.66,1.0682-.8994,2.1183-1.85,2.46-2.0808.2727-.1609,1.8832-1.7578,3.4185-2.8572.058-.0344.1111-.07.17-.104l2.89-1.6133a34.0907,34.0907,0,0,1,4.6443-1.9778c.5873-.1894,1.176-.3791,1.761-.5676,1.883-.6272,3.6467-1.05,5.3218-1.6626a19.6886,19.6886,0,0,0,3.1823-1.1594,16.2676,16.2676,0,0,1,2.2738-.8919,15.3286,15.3286,0,0,1,2.4337-.6208l1.6506-.4216c.8891-.25,1.9687-.4456,2.6554-.597.1913-.01.3462-.0185.5883-.0317a17.96,17.96,0,0,0,3.0072-.6472,113.6833,113.6833,0,0,1,18.6028-1.2341c1.5927-.01,3.2.007,4.8185.04l4.8672.0945c1.6636.0127,3.17.1118,4.73.1678l2.3313.0825,2.3348.1836c1.092.0861,2.1847.1428,3.2753.2434l3.2665.4177a42.1056,42.1056,0,0,1,6.4966,1.42c7.5974,2.3408,15.257,4.812,22.7994,7.8386,3.5464,1.4349,6.2266,1.6319,10.7032,4.3333,1.0126.5088,2.4327,1.32,3.854,2.1186a38.88,38.88,0,0,0,3.8733,2.0311c3.8164,1.6059,5.84,2.1865,9.6917,3.8117,8.5422,3.6035,17.1108,7.5752,25.7489,11.3487a50.1745,50.1745,0,0,1,4.8287,2.5087c.5839.3338,1.1693.6683,1.7509,1,1.8744,1.08,3.62,2.0743,5.4106,2.92a20.7406,20.7406,0,0,0,3.4918,1.4578,31.7422,31.7422,0,0,1,5.1507,2.049c.0534.0218,3.1385,1.27,4.5967,1.86l.5712.3274a14.9328,14.9328,0,0,0,3.2236,1.1709c12.5245,4.95,25.17,9.7954,38.2418,13.3535,2.2917.6119,4.5689,1.22,6.8529,1.83,2.2711.6472,4.5456,1.3106,6.8044,2.1394a227.3834,227.3834,0,0,0,24.6375,7.1143c3.95.9016,6.7118.7261,11.8964,2.437,2.2869.6072,6.5833,1.9248,8.8906,2.2581,2.1381.2971,3.7668.3913,5.386.5205,1.62.1213,3.24.2424,5.3981.404,9.57.8267,19.1764,1.4321,28.8082,1.5093a51.4774,51.4774,0,0,1,5.55.376c.6854.0561,1.3724.112,2.055.1679,2.204.1834,4.2553.3919,6.2863.3694a23.6132,23.6132,0,0,0,3.8728-.23c.8973-.1448,1.8307-.2539,2.781-.3233.9495-.0937,1.9155-.1557,2.8793-.17.0293-.0027.8932-.0786,1.95-.1714,1.0569-.0969,2.3085-.1865,3.1087-.2878l.6736.009a16.9126,16.9126,0,0,0,3.4762-.5225,198.8262,198.8262,0,0,0,40.2057-8.8627c4.5073-1.5064,8.8712-3.1595,13.5094-4.2278,8.2145-1.9153,16.1734-4.3894,24.2024-6.6216,3.7893-1.02,6.0647-2.5381,11.3151-3.2673,2.2419-.4888,6.5519-1.04,8.6982-1.7012,3.9842-1.2,5.9254-2.0208,9.9082-3.2493q13.2972-3.9756,26.8341-7.0317a46.8429,46.8429,0,0,1,5.2656-.8213c.6536-.0757,1.3074-.155,1.9616-.2068,2.1083-.1807,4.0609-.3464,5.9656-.666a21.4155,21.4155,0,0,0,3.61-.76,29.0148,29.0148,0,0,1,5.2874-1.0776l4.743-.8843c.2079-.0093.3761-.0168.6392-.0288a15.7159,15.7159,0,0,0,3.2675-.6472c12.9138-2.1824,25.9108-3.6414,38.8894-5.1629,2.2745-.2714,4.5374-.5026,6.8115-.7016a48.4449,48.4449,0,0,1,6.8785-.2c4.1007.2193,8.2034.1773,12.3015.3543l6.1491.1477c2.0424.0617,4.0573.1889,6.0845.2893,1.9116.1477,3.5129.0566,5.2745.0583a28.5272,28.5272,0,0,1,6.2125.7493c2.2268.3533,6.3538,1.3855,8.5436,1.6189,2.0343.1792,3.57.269,5.1061.3821s3.08.1726,5.1147.43a245.633,245.633,0,0,1,26.9538,4.7622,35.5471,35.5471,0,0,1,5.0174,1.5928l1.8234.6843c1.8358.687,3.5068,1.4343,5.2124,1.9834a26.6566,26.6566,0,0,0,5.2926,1.2085,27.9346,27.9346,0,0,1,9.8921,2.4675c5.5354,2.6548,11.3155,4.4532,16.8953,6.96,2.1916,1.0193,4.3349,1.9915,6.3711,3.07,1.0232.53,2.0533,1.0372,3.0494,1.585q1.4795.8419,2.9514,1.68l1.4684.847,1.4248.9067,2.8493,1.8445c.9344.6421,1.843,1.3247,2.771,2.0014s1.8592,1.3675,2.7382,2.13a39.4267,39.4267,0,0,1,2.9433,2.82,15.5227,15.5227,0,0,0,2.9585,2.6081,32.3146,32.3146,0,0,1,9.4563,10.5152h21.5962A7.2474,7.2474,0,0,0,1078.009,406.4725Z"/>
  <path d="M1134.219,408.5536c-.738-2.003-1.5659-3.9725-2.4135-5.9246-.9422-1.9138-1.89-3.8164-2.76-5.752-.9724-1.9868-1.9157-3.99-2.8474-6.0019-.9866-1.98-2.0792-3.9038-3.2506-5.7669a30.44,30.44,0,0,0-3.4613-3.9973c-.6114-.6333-1.1839-1.2868-1.7514-1.9333a13.7986,13.7986,0,0,1-1.5342-2.034c-1.8267-3.132-4.5834-5.38-6.4224-8.8178a30.7063,30.7063,0,0,0-2.3938-3.4859c-.44-.5593-.8927-1.1128-1.363-1.6535q-.7318-.7848-1.4924-1.552l-3.0694-3.0489c-1.0514-.9846-2.1078-1.957-3.1067-2.9755-8.1715-8.3-17.4553-15.5582-26.8611-22.3484-.77-.5672-1.5708-1.1036-2.3588-1.6358-6.5073-4.6379-13.9587-7.8955-20.8736-11.3122a274.0962,274.0962,0,0,0-29.5376-12.6241,239.3645,239.3645,0,0,0-30.7689-8.8913c-3.8159-.856-13.0557-3.0154-13.7694-3.2205-5.1317-2.0132-10.93-2.0364-16.4619-2.8535-1.9511-.2781-3.9333-.5364-5.9041-.7668l-.1559-.0181a44.9229,44.9229,0,0,0-6.5919-.85c-1.0065-.0071-1.9472-.0645-2.9186-.0916q-4.7319-.3687-9.486-.5959c-1.5776-.0781-3.1867-.14-4.7637-.1839l-4.7091-.1018c-.9448-.0107-1.8989-.0217-2.842-.0327-7.8887-.122-15.8106,1.218-23.4149,2.0142a402.6424,402.6424,0,0,0-62.3989,11.5408c-3.7343.9931-12.834,3.1584-13.5652,3.2246-5.3812.4443-10.6134,2.7766-15.8781,4.2951l-5.5731,1.6751-.1468.0439a52.2026,52.2026,0,0,0-6.2479,1.7146c-.9111.3636-1.7846.6421-2.6735.9678q-8.8444,2.66-17.7329,5.0967l-2.6735.7617c-7.4169,2.0579-14.5155,5.2866-21.5647,7.61-9.7922,3.2314-19.6051,6.1445-29.4614,8.5708-9.8337,2.425-19.7958,4.3508-29.8044,5.854-1.8352.2819-5.004.5666-7.7932.8166-2.7977.1711-5.2206.2678-5.5714.23-5.1541-.6079-10.52.4722-15.8224.4758-1.8624.0222-3.75-.05-5.62-.0669-.05,0-.0994-.0024-.1491-.0024-.9917-.1253-2.0219-.1824-3.0688-.24-1.047-.0686-2.1117-.1045-3.1729-.1245-.9447.0427-1.8289.0178-2.7424.0324-2.9657-.1557-5.9221-.4311-8.8731-.6877-2.94-.3674-5.8867-.6514-8.7989-1.14-.8784-.1314-1.7653-.264-2.642-.3948-7.2961-1.261-14.8532-1.6782-21.9423-3.2127a197.5534,197.5534,0,0,1-28.861-8.4091,253.704,253.704,0,0,1-27.4036-12.6c-3.3128-1.6919-11.0168-6.532-11.5439-7.0322-3.91-3.532-9.0253-5.71-13.5152-8.7014l-4.77-3.1761-.1333-.09a53.2368,53.2368,0,0,0-5.2038-3.6985c-.8463-.4722-1.6039-.97-2.4074-1.449q-7.5486-5.1435-14.9687-10.5359c-.7518-.531-1.5108-1.0674-2.2612-1.5974-6.2-4.5542-13.202-8.19-19.6216-12.1907-17.8488-11.1018-36.3514-22.0576-56.93-29.0537-1.8819-.6487-5.1034-1.759-7.9427-2.7378-2.861-.9424-5.3608-1.7168-5.7094-1.8711-5.0926-2.4016-11.105-2.8086-16.7993-3.6672q-1.5126-.2157-3.04-.4334l-3.0654-.3391-.1612-.0178a42.2545,42.2545,0,0,0-6.7735-.6582l-2.9556.0369c-6.4145-.2325-12.8368-.1487-19.228.1963-.9616.0661-1.9324.133-2.8922.1989-8.0538.5367-15.9865,2.7889-23.566,4.7871-5.2748,1.4141-10.4965,3.0555-15.6362,4.97a128.7431,128.7431,0,0,0-15.0744,6.6608,131.2415,131.2415,0,0,0-27.17,18.4429c-1.4545,1.384-4.1247,3.5528-6.3124,5.6421-2.2577,2.0188-4.12,3.8572-4.429,4.0808a32.8163,32.8163,0,0,0-6.0806,5.9382c-.9153,1.11-1.7654,2.2779-2.65,3.4146q-1.319,1.7062-2.63,3.4023c-1.2566,1.566-2.5161,3.1648-3.6878,4.8006l-.0945.1282c-.7169.8007-1.4246,1.6628-2.1051,2.5661-.6564.918-1.296,1.8709-1.9194,2.8284-.496.8879-1.045,1.6677-1.5209,2.5249l-2.5937,4.0156-2.5035,4.0593c-.8444,1.3213-1.6463,2.7818-2.4649,4.2-.8446,1.4211-1.572,2.8535-2.3336,4.2815-.447.8611-.9062,1.7432-1.3179,2.605-.8949,1.7578-1.6923,3.5525-2.4255,5.3657l0,0-.0043.0109c-.0734.1817-.1424.3643-.2145.5464q-.465,1.1616-.8934,2.3306l-.0449.123c-.6327,1.7286-1.2189,3.4639-1.7784,5.1949-.9553,2.9345-1.85,5.854-2.7954,8.6875l-.0039.0119-.0188.0579q-4.095,12.3417-7.5611,24.7207c.0264.0019.0516.0063.078.0083q-2.3042,8.2851-4.3973,16.5955c-2.3458,7.5668-6.4166,14.7365-8.3138,22.1567a12.02,12.02,0,0,0-.3747,3.094h20.2558c.0743-.2166.1458-.4468.2121-.6985.429-1.6126.389-4.0205.6912-5.5547.5978-2.979.706-6.0481,1.3843-9.0229,1.8763-8.3726,4.0835-16.6509,6.457-24.847.7032-2.48,1.5072-4.92,2.3022-7.3632.1755-.4725.3307-.92.4308-1.2974.0275-.0979.0491-.1824.0755-.2778,1.2155-3.6319,2.42-7.2608,3.5562-10.8887.6-2.084,2.3034-7.0869,2.5633-7.5076.462-.6723,1.61-5.3091,1.9055-6.0622.108-.2688.4325-2.2437.9263-3.9038.432-1.0686.8528-2.1458,1.3033-3.2005a25.2667,25.2667,0,0,1,2.1914-4.0224h0l.9027-1.4209c.9707-1.5267,1.9735-2.8077,2.7657-4.22a18.5748,18.5748,0,0,0,1.5593-2.7769,18.8812,18.8812,0,0,1,2.3063-4.0757c.0127-.0207.3854-.6293.8416-1.3745s.9925-1.6294,1.3628-2.177l.3735-.4116a11.7825,11.7825,0,0,0,1.4971-2.4665,164.0284,164.0284,0,0,1,10.2022-13.5164c3.6493-4.29,7.4776-8.4016,11.4244-12.42a51.2846,51.2846,0,0,1,8.9819-7.6792,199.0817,199.0817,0,0,1,18.31-10.6638c2.9948-1.45,4.6393-3.1616,9.025-4.2263,1.83-.6629,5.4526-1.385,7.22-2.0742,3.2969-1.2564,4.9014-2.0811,8.2739-3.2215a128.0374,128.0374,0,0,1,23.2423-5.2026,26.43,26.43,0,0,1,4.5939-.1794c.5671.0117,1.1355.0236,1.7.0354,1.8236.0966,3.507.1955,5.1655.164a16.215,16.215,0,0,0,3.1641-.1518,20.45,20.45,0,0,1,4.6351-.1773l.4833-.01c.2886.0048.6824.0112,1.1159.018.8674.0122,1.8932.0269,2.5518.0362.1768.03.32.0549.5435.0935a12.1707,12.1707,0,0,0,2.9032-.0027,117.3716,117.3716,0,0,1,16.5172,2.0039c5.4859,1.06,10.9449,2.4236,16.4237,3.9145a58.292,58.292,0,0,1,11.2859,4.0061c6.4081,3.27,12.9663,6.4058,19.33,9.95,2.9934,1.6745,5.3829,2.0835,9.0353,5,1.6857,1.1145,4.645,3.55,6.3684,4.531,3.2027,1.8049,4.9374,2.519,8.1536,4.3535,7.1491,4.0849,14.1384,8.5415,21.1156,13.0537a39.1906,39.1906,0,0,1,3.8182,2.9126l1.3662,1.1443c1.4527,1.2407,2.8022,2.396,4.2253,3.414a18.1148,18.1148,0,0,0,2.8034,1.8235,25.7157,25.7157,0,0,1,4.15,2.6153l3.6814,2.3964c.1423.126.2575.2281.4376.3873a12.9059,12.9059,0,0,0,2.6085,1.5666c10.0488,6.48,20.1467,13.0654,30.9608,18.5693,3.7959,1.928,7.6306,3.6748,11.3239,5.9539a144.1283,144.1283,0,0,0,20.84,10.27c3.4176,1.3635,5.9635,1.5275,10.388,3.6826.9964.3891,2.4024,1.0451,3.8188,1.6645a35.4083,35.4083,0,0,0,3.8779,1.3941c3.7644,1.007,5.7484,1.1262,9.5458,1.9343,8.4647,1.6658,16.9465,3.1052,25.4684,4.1487a42.1336,42.1336,0,0,1,4.8733.8972l1.7937.41c1.9258.4045,3.7182.7766,5.51.9951a15.9683,15.9683,0,0,0,3.4365.2378,26.9625,26.9625,0,0,1,5.0394.1839c.0261.0012.7941.0415,1.734.091.9407.0227,2.0534.05,2.7676.0672.1918.0327.3471.059.59.1a13.7354,13.7354,0,0,0,3.1136-.0266,209.1765,209.1765,0,0,0,36.5626-2.15c4.234-.6333,8.3576-1.58,12.6863-1.8664a170.3139,170.3139,0,0,0,22.727-3.783c3.5341-.7954,5.6627-2.1189,10.4941-2.69,2.061-.4287,6.0243-.9248,7.9822-1.5654,3.6241-1.188,5.3677-2.03,8.943-3.3074q11.9175-4.2571,23.7371-8.2912a34.117,34.117,0,0,1,4.6517-1.1629l1.7414-.3454c1.8714-.3523,3.6063-.6773,5.28-1.1453a17.92,17.92,0,0,0,3.1517-1.0339,24.9544,24.9544,0,0,1,4.5959-1.5774c.048-.0157,2.821-.9151,4.1318-1.34l.5693-.094a12.8207,12.8207,0,0,0,2.8251-1.0227c11.2144-3.75,22.53-6.843,33.7479-10.33,1.9663-.604,3.9154-1.23,5.8873-1.7927a55.1937,55.1937,0,0,1,6.0353-1.3269c7.2944-1.0713,14.5045-2.6517,21.7692-3.79,3.4174-.5625,5.5625-1.6907,10.2482-1.7261,2.02-.16,5.8537-.1557,7.8056-.4524,3.62-.5612,5.4065-1.1484,9.038-1.6689a223.5839,223.5839,0,0,1,24.3334-2.3184,28.0946,28.0946,0,0,1,4.6877.19c.5761.0571,1.1535.1143,1.7272.1709,1.8518.1985,3.5652.3823,5.2218.47a17.8911,17.8911,0,0,0,3.2032.0284,21.2834,21.2834,0,0,1,4.705.07l4.21.2292c.1782.0393.3224.0711.5479.12a12.4919,12.4919,0,0,0,2.9181.1089c11.4458.91,22.893,2.8862,34.2874,4.7661,1.9955.3591,3.9934.6658,5.973,1.084a51.0882,51.0882,0,0,1,5.8845,1.6194c6.8611,2.4423,13.8154,4.632,20.6092,7.2329,3.2045,1.2033,5.6043,1.3217,9.6038,3.6709,1.7949.8994,5.04,2.8542,6.83,3.632,1.6752.6922,2.9646,1.1465,4.25,1.6126,1.2736.49,2.5517.9748,4.2233,1.6894a174.9019,174.9019,0,0,1,21.4133,11.2391,27.4072,27.4072,0,0,1,3.729,2.7658l1.3074,1.115c2.6409,2.2381,4.7279,4.3543,7.797,5.7112,2.7351,1.3445,5.1762,2.511,7.4433,5.0139,3.7283,3.9175,7.8889,7.2366,11.6658,11.0957a91.7446,91.7446,0,0,1,14.6855,19.5166c1.122,2.177,1.8111,4.62,3.1289,6.5662,3.1369,4.2795,4.3721,9.0085,5.8475,14.16h19.7706A4.1355,4.1355,0,0,0,1134.219,408.5536Z"/>
  <path d="M1189.1887,409.5626a56.6907,56.6907,0,0,0-1.7534-5.4942c-.6527-1.811-1.267-3.6289-1.8791-5.45-1.3277-3.7807-2.193-7.74-3.8521-11.3967a29.6561,29.6561,0,0,0-2.4114-4.1748,17.1808,17.1808,0,0,1-2.2464-4.1562c-.989-3.17-3.0393-5.7474-3.8813-9.2449a31.84,31.84,0,0,0-3.0678-7.2205c-1.2381-2.3515-2.7658-4.5722-3.9754-6.9214a251.9538,251.9538,0,0,0-17.5411-27.4624c-.52-.728-1.1036-1.4172-1.6321-2.1372-4.3744-6.084-10.1054-11.1618-15.2365-16.2961a216.9222,216.9222,0,0,0-48.0779-36.4209c-.8078-.4431-1.8891-1.0674-3.0655-1.762l-3.6929-2.0771c-2.4008-1.4024-4.5159-2.5459-4.7935-2.761a30.3508,30.3508,0,0,0-6.802-3.8345l-3.66-1.5515c-1.2339-.4856-2.4595-.9834-3.654-1.53-1.6794-.7779-3.3929-1.5408-5.1133-2.2439l-.1355-.0572a39.6205,39.6205,0,0,0-5.69-2.5092c-.9037-.2635-1.7282-.5691-2.5922-.8479-2.74-1.106-5.5307-2.0642-8.29-3.1118q-4.1747-1.4718-8.34-2.941c-.8439-.2732-1.696-.5493-2.5384-.8222-7.0357-2.3841-14.5873-3.4185-21.76-4.68-4.9929-.8777-10.0293-1.5958-15.1032-2.1121-2.5272-.2449-5.1062-.468-7.635-.5835l-7.539-.3027a245.8729,245.8729,0,0,0-29.998,1.1538c-1.8163.2158-4.95.3586-7.6915.6272-2.7466.2336-5.1288.4011-5.4768.3723-5.1111-.3533-10.3221,1.1687-15.4613,1.9258-1.8159.2509-3.6553.5153-5.4666.833-.0485.0083-.0974.0158-.1459.0241a48.63,48.63,0,0,0-6.0929.8577c-.8991.2407-1.749.4231-2.6208.6384-5.7478,1.0469-11.4745,2.146-17.1836,3.2539l-2.5753.5413c-7.1925,1.3579-14.1515,4.04-20.98,6.0217l-7.1054,2.1106-7.0825,2.1712c-4.6941,1.4939-9.3248,3.0959-13.9889,4.6428-9.3107,3.124-18.61,6.2847-27.8442,9.6216-3.3736,1.2444-11.6242,3.886-12.3,3.9734-4.9583.6889-9.6214,3.1626-14.457,4.6779-1.7.5347-3.4228,1.0769-5.1309,1.6143-.0473.0146-.0948.0283-.1421.043a49.251,49.251,0,0,0-5.75,1.5949c-.8375.336-1.641.5994-2.46.8924-5.4332,1.604-10.8886,3.0559-16.36,4.2932l-2.4693.5852c-6.8727,1.4595-13.65,3.8142-20.385,5.2119-18.6771,3.8813-37.75,5.47-56.7943,5.9768-1.7458.0208-4.7356-.0432-7.3668-.1448-2.6268-.1784-4.8961-.3674-5.2185-.4477a28.562,28.562,0,0,0-3.6159-.6079c-1.22-.1548-2.4553-.24-3.6994-.2986-1.2459-.0447-2.4973-.09-3.7472-.1348-1.2488-.0588-2.4883-.1853-3.7175-.3384l-5.221-.665-.1365-.0225a43.7482,43.7482,0,0,0-5.7451-1.0913c-.8812-.0676-1.7058-.16-2.5483-.2793-2.7136-.5622-5.4346-1.0925-8.1239-1.7219-2.667-.7073-5.3458-1.3664-7.9736-2.1589-.7885-.2432-1.5847-.4886-2.3718-.7312-6.5778-2.0327-13.3591-3.6756-19.6368-6.05a136.9358,136.9358,0,0,1-24.5766-13.0493c-7.8228-5.149-15.2914-10.991-22.8137-17.021-2.766-2.1968-9.102-7.9956-9.5048-8.552-3.0272-3.9441-7.4581-6.8052-11.1876-10.28-1.3177-1.22-2.6533-2.4573-3.9774-3.6836l-.1048-.0972a46.8175,46.8175,0,0,0-4.3354-4.2214c-.7246-.5588-1.3679-1.13-2.0541-1.69q-6.357-5.8593-12.6727-11.8208l-1.9362-1.7683c-5.2924-5.0127-11.5183-9.1611-17.1743-13.5317-15.7268-12.1419-32.3764-23.6221-50.78-32.0061l-3.2242-1.5081c-1.24-.5954-2.5958-1.2268-3.8732-1.8083-2.5386-1.1924-4.7817-2.1492-5.0727-2.3577-4.4276-2.8081-9.9257-3.8476-15.0407-5.4092-1.8075-.55-3.656-1.0661-5.4975-1.5485l-.1461-.0369c-.9569-.3438-1.9663-.65-3.0006-.9287-1.04-.2608-2.11-.4737-3.1757-.6807-.9558-.1384-1.8522-.2681-2.7766-.4016A161.3171,161.3171,0,0,0,367.13,153.65c-.897-.0808-1.8228-.0918-2.7393-.14-7.69-.47-15.26.8433-22.4541,1.7232a275.88,275.88,0,0,0-29.6851,5.2756c-4.89,1.1789-9.76,2.4538-14.588,4.0066-2.4189.73-4.8194,1.6118-7.2193,2.4533-2.3922.9361-4.7813,1.8323-7.15,2.9249-1.7895.7341-4.6208,2.0864-7.1919,3.2092l-3.3976,1.4763c-.9009.43-1.5312.7183-1.7.77a34.7117,34.7117,0,0,0-7.1513,3.2883c-2.2634,1.4131-4.4848,2.9314-6.7908,4.2354-1.617.9306-3.1883,1.9836-4.7814,2.9719l-.1255.0788a34.41,34.41,0,0,0-5.3336,3.2989c-.73.6069-1.4507,1.124-2.171,1.6892-1.2183.8559-2.4615,1.6787-3.6651,2.5532l-3.5795,2.6633c-1.1893.8919-2.4083,1.7488-3.581,2.66l-3.499,2.7566-2.0985,1.6817c-1.4859,1.1347-2.8366,2.4319-4.2112,3.7038-1.3476,1.3-2.73,2.5677-3.9763,3.961-2.537,2.7426-5.0525,5.4641-7.4684,8.1694a272.6181,272.6181,0,0,0-19.2392,23.2212l-4.3718,6.1206-4.1679,6.25c-1.3539,2.102-2.6494,4.2353-3.9642,6.3581-1.3056,2.1377-2.5445,4.4783-3.7967,6.7146-.854,1.6731-2.3372,4.5034-3.6838,6.9849-1.2354,2.5051-2.3362,4.6613-2.5425,4.9487a30.33,30.33,0,0,0-3.521,6.9778c-.9928,2.4553-1.75,4.9951-2.7429,7.41-.69,1.7031-1.4125,3.4282-2.04,5.1538-.0169.0456-.0346.0911-.0516.137a48.637,48.637,0,0,0-2.3106,5.7048c-.2677.8882-.5187,1.7212-.7775,2.58q-2.9331,8.2274-5.8564,16.4282l.0013.0008-.0013,0c-.3027.82-.5547,1.6616-.8426,2.4814-.9947,2.78-1.7976,5.6341-2.5277,8.5-.1327.52-.2643,1.0388-.3914,1.56-.4214,1.7119-.8254,3.4223-1.23,5.1223-.0851.3535-.1688.7082-.2549,1.06-.0889.3694-.1793.7366-.2692,1.1045q-.456,1.8369-.9267,3.646c-2.0716,7.7651-4.1476,15.52-6.1311,23.29.0262.0015.0513.0052.0775.0066q-1.9521,7.7784-3.8145,15.57c-2.141,7.0975-5.9485,13.814-7.71,20.7586a11.2256,11.2256,0,0,0-.3137,2.4148h19.6912c.01-.0354.0207-.0647.03-.1008.389-1.5237.3454-3.7864.6187-5.2337.5344-2.814.614-5.7026,1.21-8.5173.8593-3.947,1.7724-7.8826,2.7112-11.8128l2.9651-11.7431c.6272-2.3638,1.3089-4.7139,1.9852-7.0647.1455-.4387.2738-.8543.3556-1.2046l.0012-.0039.0019-.0088c.0174-.0757.0309-.14.0477-.2144.99-3.5161,2.0477-7,2.9105-10.5407.4749-2.0047,1.7607-6.9,2-7.31.3955-.6773,1.1229-5.2112,1.3317-5.9619.079-.2864.2187-2.4231.58-4.1089l-.0027-.0007c.2823-.9832.5619-1.9676.8458-2.95a31.0548,31.0548,0,0,1,1.5883-4.1814h0c.2259-.5042.4522-1.0093.6772-1.5113.7428-1.6135,1.4321-3.1076,1.9745-4.6338a18.2014,18.2014,0,0,0,.9154-2.9521,22.3461,22.3461,0,0,1,1.3331-4.3171c.0146-.0447.86-2.6209,1.26-3.8384.0825-.1538.1493-.2783.2537-.4727a11.3666,11.3666,0,0,0,.83-2.6557c3.6025-10.3274,7.7583-20.3963,12.0817-30.1329a48.7224,48.7224,0,0,1,5.3025-9.7807c2.0751-2.7363,4.0084-5.5691,6.0266-8.33,1.9535-2.8111,4.0019-5.5479,6.0554-8.2749,1.9523-2.5518,2.6875-4.6873,5.8647-7.6622,1.2873-1.3752,3.969-3.7224,5.0867-5.1772,2.1624-2.6194,3.0525-4.1128,5.2137-6.7522a177.9267,177.9267,0,0,1,15.7677-16.34,26.21,26.21,0,0,1,3.4976-2.6158l1.346-.8955c1.4512-.9467,2.7851-1.83,4.08-2.7334a15.2257,15.2257,0,0,0,2.3528-1.8808,17.3245,17.3245,0,0,1,3.4349-2.7715c.037-.0269,2.1788-1.5825,3.1911-2.3176.1522-.0772.2753-.14.4679-.2371a10.934,10.934,0,0,0,2.1484-1.6841,255.1251,255.1251,0,0,1,27.7591-16.2143c1.6656-.9356,3.2927-1.7273,4.9565-2.4873a37.3087,37.3087,0,0,1,5.2488-1.8836c6.4873-1.6858,13.0283-3.5478,19.686-4.9856,3.1424-.6423,5.0664-1.87,9.4273-2.0215,1.866-.2507,5.4378-.29,7.2366-.65,3.3441-.6414,4.9908-1.2005,8.35-1.7837a139.0378,139.0378,0,0,1,22.408-2.1189,25.9642,25.9642,0,0,1,4.2509.3767l1.577.251c1.677.3081,3.1855.6269,4.71.8a14.31,14.31,0,0,0,2.9142.2673,18.3705,18.3705,0,0,1,4.2731.4527l3.8023.6155c.1571.0573.2843.104.4832.1765a10.4157,10.4157,0,0,0,2.6369.4162c10.3,2.1038,20.3,5.7508,30.2843,9.6641a56.75,56.75,0,0,1,10.23,4.82c5.7393,3.6568,11.62,7.1094,17.282,10.93,2.6612,1.8022,4.8673,2.3671,8.0262,5.3933,1.4779,1.1794,4.0187,3.7094,5.5388,4.7634,2.8254,1.9477,4.3805,2.7539,7.2047,4.7383,6.2706,4.4306,12.2984,9.2319,18.2336,14.1977a34.1314,34.1314,0,0,1,3.1836,3.1365l1.1193,1.2249c1.1882,1.3232,2.2854,2.5564,3.4674,3.6772a16.6263,16.6263,0,0,0,2.3536,2.0313,22.6769,22.6769,0,0,1,3.4836,2.9465c.0356.0312,2.0927,1.8454,3.0651,2.7031l.3477.4177a11.7894,11.7894,0,0,0,2.1839,1.8033c8.3284,7.3693,16.5512,15.0244,25.516,21.9157a114.6416,114.6416,0,0,1,9.2536,7.4795,144.54,144.54,0,0,0,16.9982,13.53,40.5725,40.5725,0,0,0,4.1024,2.3957,30.6778,30.6778,0,0,1,4.6826,3.1433,69.7545,69.7545,0,0,0,6.5535,4.3738c3.3479,1.6145,5.1622,2.1521,8.5957,3.5576,3.839,1.5449,7.7154,2.8379,11.5643,4.2188,1.9346.653,3.8938,1.2126,5.8362,1.8283l2.9179.9051,2.9463.7761a39.2648,39.2648,0,0,1,4.4363,1.5315c.539.2222,1.0855.4175,1.63.6045,1.75.6284,3.38,1.2131,5.0307,1.6482a14.7614,14.7614,0,0,0,3.1867.6645,24.8806,24.8806,0,0,1,4.6974.7632c.0243.0042.7385.1323,1.6126.2891.8735.1606,1.9068.35,2.5754.426l.54.16a12.63,12.63,0,0,0,2.9176.3115,197.9119,197.9119,0,0,0,34.3284,2.2068l5.9863-.2322a54.9927,54.9927,0,0,1,6.014-.0161l2.6927.1328,2.6935.009c1.797-.0075,3.596-.04,5.3957-.0849,3.5946-.1539,7.1894-.3977,10.7795-.6451,1.6911-.1445,3.0773-.4636,4.6113-.72a30.1274,30.1274,0,0,1,5.5087-.4065c1.9749-.1551,5.758-.0335,7.676-.408,3.5493-.6977,5.2983-1.2527,8.8236-2.0268,7.8121-1.773,15.5944-3.5984,23.3047-5.6883a42.8041,42.8041,0,0,1,4.52-.8823l1.6866-.262c1.805-.2815,3.4911-.5234,5.107-.9423a16.7933,16.7933,0,0,0,3.0519-.9251,24.555,24.555,0,0,1,4.43-1.4543l3.9655-1.2613c.1773-.0293.3209-.0527.5453-.09a12.1133,12.1133,0,0,0,2.7018-.98c10.7139-3.5205,21.3591-7.0823,31.6918-11.3013a77.968,77.968,0,0,1,10.9911-3.9228c6.7789-1.6741,13.4123-3.9,20.0831-5.9641,3.1448-.9727,4.9914-2.38,9.38-3.1048.93-.2444,2.2963-.5112,3.6507-.7978a32.39,32.39,0,0,0,3.5912-.8245c3.294-1.1074,4.88-1.9,8.1823-2.9939,7.3269-2.4851,14.7764-4.562,22.2484-6.5085a35.0867,35.0867,0,0,1,4.3921-.7466c.5461-.0669,1.0936-.1338,1.6375-.2,1.76-.1889,3.3951-.3239,4.9805-.624a15.9954,15.9954,0,0,0,3-.7024,20.1708,20.1708,0,0,1,4.3909-1.0246c.0459-.01,2.693-.5659,3.9442-.8291.1739-.0088.3148-.0161.5349-.0274a12.1433,12.1433,0,0,0,2.7134-.6206c10.7422-2.0832,21.57-3.498,32.3682-5.0781a64.94,64.94,0,0,1,11.4077-1.0088c6.85.1414,13.6924.1062,20.5135.3457,3.1918.1909,5.3908-.4892,9.6005.4321,1.82.2322,5.2093,1.1438,7.0039,1.3008,3.3356.3008,5.05.23,8.405.6343a162.7425,162.7425,0,0,1,22.2316,4.4619,30.4037,30.4037,0,0,1,4.1293,1.5083c.5.2139,1.0028.42,1.4943.6514,1.589.7329,3.0576,1.4121,4.5583,1.9438a19.0593,19.0593,0,0,0,2.8941.9307,21.77,21.77,0,0,1,4.2488,1.34c.0435.0156,2.5546.9285,3.7416,1.36l.4629.2576a12.0174,12.0174,0,0,0,2.6157.8608c10.1025,3.8772,19.84,8.586,29.5844,13.304a60.83,60.83,0,0,1,9.8894,5.6091c2.7612,1.9888,5.4776,4.0374,8.262,5.9858,2.719,2.04,5.4959,4.002,8.1242,6.15,2.5235,1.9576,4.62,2.7493,7.5054,5.9788,1.3509,1.2991,3.5934,4.0523,5.0126,5.2,2.5369,2.2356,4.03,3.1316,6.5539,5.4038a154.8348,154.8348,0,0,1,15.6988,16.33,30.979,30.979,0,0,1,2.5117,3.5654l.8212,1.3945c.8126,1.4126,1.5562,2.7325,2.3974,3.9551a18.617,18.617,0,0,0,2.8735,3.4685,30.0592,30.0592,0,0,1,2.9441,2.9627,18.4555,18.4555,0,0,1,2.3469,3.6706c2.2075,4.62,5.1454,8.7481,7.5569,13.2879,1.0008,1.7707,1.8206,3.5749,2.6885,5.32.8608,1.75,1.6938,3.4805,2.4164,5.2632.74,1.7737,1.4978,3.5374,2.1777,5.3626.6488,1.8388,1.2825,3.7109,1.9027,5.6423.73,2.2439.7583,4.7715,1.8048,6.8245,2.3211,4.768,2.8787,9.62,3.9039,14.9946h18.7812Z"/>
  <path d="M1240.8657,399.6441c-.9326-3.6672-1.6269-7.4218-2.8246-11.0127-.9239-2.8667-3.0416-5.3916-3.6645-8.2612a39.78,39.78,0,0,0-1.3892-4.4539,20.4525,20.4525,0,0,1-1.2539-4.6726c-.5456-4.9-3.0672-9.4887-4.644-14.2348-3.391-9.6409-7.3446-19.2544-11.3908-28.7544-.3476-.7749-.6987-1.5574-1.0456-2.3311-2.7555-6.5537-6.87-12.5551-10.3369-18.55-9.8241-16.5622-20.9732-32.5461-34.5447-46.3772-1.2223-1.2827-3.3432-3.4524-5.1557-5.4209-1.82-1.9616-3.4765-3.5827-3.6575-3.8733a26.0592,26.0592,0,0,0-2.3947-2.88c-.8833-.894-1.8422-1.7268-2.8119-2.554-1.9653-1.6211-3.9477-3.2565-5.904-4.87-1.3562-1.16-2.7043-2.3692-4.1021-3.4927l-.1105-.0891a47.6691,47.6691,0,0,0-4.5844-3.8743c-.7492-.51-1.4518-.9885-2.1762-1.4819-2.2884-1.6985-4.5229-3.4732-6.86-5.0994-2.3093-1.6667-4.607-3.35-6.9674-4.935-.71-.4783-1.4276-.961-2.1366-1.438-5.9181-4.0332-12.6012-6.9851-18.852-10.021l-3.2479-1.6138-3.289-1.5224c-2.1875-1.0259-4.3787-2.0423-6.6053-2.9739-4.4146-1.9436-8.895-3.7759-13.4534-5.4356a169.1155,169.1155,0,0,0-28.1414-7.8022c-1.7662-.33-4.79-.896-7.4547-1.3943l-3.5468-.6121c-.9619-.1523-1.628-.2693-1.7924-.321a19.7239,19.7239,0,0,0-3.6867-.79c-1.2441-.1635-2.5079-.2607-3.7786-.3315-1.271-.0579-2.5475-.116-3.8225-.1738-1.2746-.031-2.5461-.04-3.8061-.1233-1.7757-.104-3.5754-.2095-5.36-.3137l-.1412-.0083a39.6839,39.6839,0,0,0-5.9631-.3079c-.9015.06-1.7461.0566-2.6171.09l-2.127-.0481-2.1231.0171-4.2456.018c-1.4143.0115-2.8322-.0229-4.2433.0137l-4.2331.0982c-.8493.0266-1.7067.0532-2.5543.08a49.1436,49.1436,0,0,0-5.32.333c-1.7694.1846-3.536.4094-5.2949.6462-3.517.4817-6.9775,1.1685-10.4026,1.5914-9.4825,1.3886-18.9341,2.9157-28.281,4.884-9.34,1.9812-18.6283,4.186-27.7474,6.9175-3.3536.9616-11.5326,3.081-12.1941,3.1457-4.8626.4729-9.5283,2.7063-14.2761,4.1489-1.6773.4981-3.3745,1.0135-5.0461,1.5425l-.1325.0413a43.494,43.494,0,0,0-5.6326,1.63c-.8172.3443-1.6011.6126-2.3974.9251-5.2961,1.71-10.5826,3.4045-15.87,5.0329-.7922.2554-1.5919.513-2.3826.7676-6.6561,2.0115-13.0269,5.11-19.3617,7.4675-17.614,6.5555-35.2554,12.64-52.8871,18.45-3.23,1.0823-11.2087,3.1338-11.8577,3.15-4.737.3435-9.3343,2.343-14.0565,3.3784-1.6609.3584-3.3445.7219-5.0136,1.0823-.0457.01-.0916.0185-.1373.0281a49.0012,49.0012,0,0,0-5.6157.98c-.828.2415-1.617.4072-2.4243.5942q-3.9947.6677-7.9839,1.3348c-2.6731.3615-5.3492.6818-8.02.9931-.8044.0908-1.61.2317-2.4175.284-3.3745.2434-6.7277.842-10.08,1.3376-3.3543.4543-6.6855,1.0708-9.9819,1.3066-9.1547.8287-18.343.9995-27.5106.9507-9.1668-.1667-18.2994-.7256-27.4014-1.5657-3.3251-.3789-11.3148-1.76-11.8762-2.1066a32.1976,32.1976,0,0,0-6.8205-1.7659c-2.3213-.4871-4.6939-.8753-6.9838-1.47-1.6263-.378-3.2055-.9532-4.8058-1.4239l-.1259-.039a52.1906,52.1906,0,0,0-5.26-1.8223c-.8088-.2165-1.5487-.477-2.324-.71a114.499,114.499,0,0,1-14.3659-6.313c-.691-.3606-1.3885-.7248-2.0781-1.0849-5.6447-3.2049-11.6564-6.0408-16.9207-9.7437-14.6505-10.2271-26.8119-24.0786-39.6058-37.751-2.3405-2.4924-7.6638-8.9079-7.9937-9.477-2.4149-4.1775-6.3418-7.4575-9.5448-11.2151-1.1358-1.3181-2.2871-2.6541-3.4285-3.9785l-.0907-.1045a42.77,42.77,0,0,0-3.74-4.5137c-.6438-.6116-1.2024-1.2256-1.8061-1.8337q-5.5692-6.2878-11.12-12.555l-1.7139-1.8689c-4.6811-5.2744-10.3389-9.7724-15.4835-14.3755-14.2482-12.8459-29.6193-24.8364-46.6148-34.112l-6.5366-3.6892c-2.3336-1.3333-4.3966-2.4241-4.6618-2.64-3.9964-3.0347-9.1415-4.48-13.8565-6.45-1.6806-.6624-3.3617-1.3848-5.078-1.99l-.1349-.05c-.873-.4248-1.7992-.8186-2.7519-1.1884-.9609-.35-1.9527-.6651-2.9423-.97-.8966-.2158-1.7159-.4831-2.587-.6809-5.5339-1.7255-11.16-3.2175-16.8687-4.4008-.8538-.2037-1.7374-.3025-2.5967-.4786q-1.3511-.2614-2.7153-.476c-.913-.1209-1.8313-.2139-2.7494-.3042-1.8337-.2027-3.6837-.2683-5.526-.3162-1.8454-.081-3.665-.0207-5.4769-.0244q-2.7563.0739-5.4717.1467a262.7363,262.7363,0,0,0-28.93,2.9195c-9.4776,1.4482-18.8571,3.2922-28.137,5.6586-3.402.844-11.7209,2.721-12.3921,2.8162-4.9472.3731-9.7291,2.6333-14.6259,4.2573-1.7252.6011-3.52,1.2593-5.2225,1.92l-.13.0552a47.4535,47.4535,0,0,0-5.5706,2.1973c-.8.4257-1.5748.7692-2.3582,1.1577-1.3032.57-2.6373,1.0744-3.9192,1.6887l-3.8543,1.8245c-2.5621,1.229-5.1777,2.3564-7.718,3.6223-.7556.3986-1.5184.8012-2.2725,1.1992-1.5933.8042-3.1612,1.6721-4.7088,2.5752-1.55.9-3.0852,1.8257-4.5391,2.8713-2.9368,2.0442-5.8513,4.0723-8.7423,6.001a270.6668,270.6668,0,0,0-44.132,37.1743c-2.3543,2.6143-8.449,8.5877-8.9121,9.0562a33.98,33.98,0,0,0-5.2742,5.2671c-1.639,1.9191-3.0791,4.0266-4.7371,5.9072-1.1511,1.3381-2.3294,2.6867-3.4633,4.05l-.0882.1089a46.6774,46.6774,0,0,0-3.8436,4.5134c-.5.7446-1.0163,1.4053-1.5193,2.11-1.7791,2.1846-3.45,4.4439-5.2005,6.6448l-2.6015,3.3164-2.5472,3.3479-1.521,2.0327a88.53,88.53,0,0,0-5.8778,8.8089l-1.3664,2.2614q-.6621,1.1984-1.3208,2.39c-.8808,1.5854-1.7653,3.1513-2.6757,4.6809-1.2132,2.1406-2.2928,4.3186-3.45,6.4724-.557,1.083-1.1683,2.1511-1.682,3.2451l-1.5533,3.2781c-1.0162,2.19-2.1184,4.3581-3.0649,6.5654l-2.8445,6.6209c-.9774,2.2-1.8161,4.434-2.688,6.66l-2.5794,6.6892c-1.5694,4.4953-3.2013,8.979-4.6259,13.5117-1.0271,3.3257-3.9894,11.2353-4.2572,11.8276-2.3222,4.2735-3.1811,9.3582-4.6687,14.0733-.526,1.6618-1.0591,3.3464-1.5875,5.0163l-.0418.1321a44.2965,44.2965,0,0,0-1.9014,5.5425c-.1779.8677-.4031,1.664-.5993,2.4961-1.5912,5.3247-3.3024,10.6159-4.95,15.8984h0c-.243.7969-.4885,1.6016-.7311,2.397-.9152,2.77-1.6264,5.6116-2.271,8.4621-.0694.306-.1379.6106-.2057.9168q-.4333,1.9588-.8472,3.9116-.237,1.114-.4785,2.22c-.106.4859-.2149.9688-.3236,1.4517-.2469,1.0957-.4978,2.1875-.7721,3.2632l-5.596,22.4223c.0229.001.0448.0042.0675.0054-1.2036,4.99-2.4159,9.9785-3.5609,14.9793-2.0008,6.8327-5.6931,13.2873-7.3564,19.965a10.7679,10.7679,0,0,0-.2828,1.9942h19.07c.3225-1.4583.2829-3.4966.5275-4.8255.5026-2.7146.5848-5.4931,1.1554-8.205,1.5909-7.6258,3.444-15.1892,5.3228-22.7434.5591-2.2876,1.203-4.5511,1.8323-6.8186.14-.4329.2625-.8428.3388-1.1875.0176-.0787.031-.1463.0479-.2232.9434-3.39,1.8541-6.7883,2.6473-10.2119.456-1.9314,1.5883-6.6919,1.81-7.0925.3677-.6631.9751-5.0589,1.1609-5.7879.0657-.28.1381-2.3537.4513-3.989l-.0015,0c.2481-.9573.4919-1.916.7448-2.8718a34.2788,34.2788,0,0,1,1.419-4.0876c.1985-.4966.3975-.9942.5953-1.4888.6571-1.5894,1.2538-3.0676,1.7445-4.5576a15.6438,15.6438,0,0,0,.79-2.8894,21.83,21.83,0,0,1,1.098-4.2486c.0122-.0437.7157-2.5808,1.0481-3.78.07-.1545.1267-.2795.2152-.4751a12.1964,12.1964,0,0,0,.6545-2.63c2.9659-10.22,6.1986-20.3606,9.11-30.5679.5029-1.7922.98-3.5823,1.5179-5.3577a44.177,44.177,0,0,1,1.9846-5.217c2.7326-6.0786,5.1628-12.2695,7.8138-18.3355,1.3025-2.8215,1.4345-5.032,3.732-8.5566.8883-1.5806,2.8587-4.39,3.5694-6.0054.33-.75.6057-1.4131.8548-2.0332.2669-.6035.5134-1.1609.76-1.7185.4856-1.12.9673-2.2449,1.6709-3.7119l1.1813-2.4429c.4192-.792.8708-1.5554,1.308-2.334l2.6679-4.644c1.99-3.1106,4.0027-6.2449,6.0682-9.3188a33.512,33.512,0,0,1,2.6952-3.3216l1.0544-1.1821c1.1429-1.2564,2.195-2.4243,3.1745-3.624a15.2424,15.2424,0,0,0,1.7353-2.3933,21.2919,21.2919,0,0,1,2.492-3.5435c.0066-.0093.1068-.1475.2647-.3657s.3735-.5159.6248-.8318c.4944-.6392,1.0792-1.3948,1.4546-1.88.1219-.115.2207-.208.375-.3533a10.8858,10.8858,0,0,0,1.5608-2.1718l2.4168-3.1128,2.5062-3.0362c1.6879-2.0092,3.3291-4.063,5.0434-6.0488l10.3024-11.9058c1.2084-1.3869,2.3434-2.8361,3.618-4.1518a48.1412,48.1412,0,0,1,4.0231-3.7932l7.551-6.3882,3.7326-3.241c1.2669-1.0517,2.5612-2.0693,3.8448-3.0979,1.214-.9656,2.1007-1.9172,3.1378-2.8962a20.7373,20.7373,0,0,1,1.73-1.4866,21.7452,21.7452,0,0,1,2.372-1.459c1.5145-1.0036,4.555-2.6081,5.9294-3.7251,2.5735-2.04,3.81-3.1455,6.4172-5.16,1.47-1.0857,2.89-2.2574,4.4251-3.249l4.5725-3.0374c1.5384-.991,3.042-2.0449,4.6188-2.9736l4.7466-2.7618a32.7226,32.7226,0,0,1,3.81-1.8215c.4814-.2.9541-.4187,1.4515-.5815,1.5879-.5584,3.0561-1.0733,4.4459-1.711a14.8394,14.8394,0,0,0,2.5935-1.3413,17.1991,17.1991,0,0,1,3.79-1.9861c.0405-.018,2.3815-1.07,3.488-1.5669l.4917-.133a10.641,10.641,0,0,0,2.372-1.17l3.5567-1.5938c1.1706-.48,2.3222-.9033,3.4841-1.36,1.1556-.4526,2.3973-.8354,3.591-1.26,1.1937-.4285,2.4272-.8132,3.6628-1.1982,4.9108-1.586,9.9617-3.0061,14.9892-4.5347,1.7705-.5159,3.5221-1.0667,5.3017-1.5337a48.4873,48.4873,0,0,1,5.4472-1.0854c6.5846-.8094,13.12-2.0137,19.6844-2.8907,3.09-.3579,5.0471-1.436,9.2569-1.2483,1.82-.13,5.2486.094,6.9972-.1262,1.6279-.2287,2.8306-.39,4.0415-.583,1.2042-.1726,2.4347-.4221,4.0279-.5334,1.772-.1338,3.5827-.3311,5.3161-.347l2.6279-.0742,2.6762.034c1.79.0185,3.55.1694,5.3295.2514,1.77.1724,3.5459.3064,5.3134.5362a26.5236,26.5236,0,0,1,4.0141.9021c.4864.1506.9738.3017,1.4582.4516.7777.2451,1.5272.4815,2.261.7127.7307.2451,1.448.4663,2.1695.6511a18.1728,18.1728,0,0,0,2.7819.603,17.3769,17.3769,0,0,1,4.0716.9419c.0418.0117,2.4611.6912,3.6046,1.0125.1456.0725.2634.1316.4476.2233a10.2028,10.2028,0,0,0,2.5036.6792c9.72,3.128,19.0561,7.483,28.3878,11.9883a58.6265,58.6265,0,0,1,9.5312,5.3633c5.2653,3.9126,10.7017,7.5938,15.8893,11.6228,2.4285,1.9129,4.5245,2.5745,7.3433,5.6973,1.3456,1.218,3.6061,3.8171,4.9887,4.9294,2.5756,2.0508,4.01,2.9265,6.5692,5.0249,5.6917,4.6634,11.0723,9.7349,16.3362,14.9463a30.2628,30.2628,0,0,1,2.7737,3.2581l.96,1.2654c1.0162,1.3667,1.9569,2.6315,2.9772,3.81a15.3963,15.3963,0,0,0,2.0572,2.1463,20.8719,20.8719,0,0,1,3.0378,3.1318l2.6532,2.8669c.0939.1407.17.2547.2885.4329a11.1313,11.1313,0,0,0,1.8979,1.9265c7.166,7.855,14.0786,16.044,21.6291,23.75a91.6866,91.6866,0,0,1,7.6848,8.3455,193.7541,193.7541,0,0,0,13.5894,15.4914c2.2627,2.3787,4.32,3.3777,7.0835,6.8811a69.7774,69.7774,0,0,0,5.1819,5.4419c1.3674,1.1252,2.4767,1.8823,3.5747,2.6453l3.6714,2.5251a166.0129,166.0129,0,0,0,20.2955,12.3491c1.342.7163,2.6578,1.4908,3.9579,2.3057l1.4445.9a50.0856,50.0856,0,0,0,4.54,2.4529,17.5067,17.5067,0,0,0,2.94,1.2065,39.06,39.06,0,0,1,4.379,1.5232c.0453.0159,2.6687.9253,3.9087,1.3552l.489.2544a8.1644,8.1644,0,0,0,1.2862.4837c.4665.1167.9615.2029,1.4614.2864a157.6122,157.6122,0,0,0,32.6373,6.72c3.856.4326,7.6773.4544,11.5284,1.1844,1.7044.34,3.4211.5559,5.1428.7424,1.7213.1936,3.4477.364,5.1761.5217,1.7284.1848,3.46.2368,5.1909.3259l5.1942.2561c3.27.1561,5.428-.6406,9.7958.0452a71.6467,71.6467,0,0,0,7.3712.4363c1.7327-.1089,3.0311-.2493,4.3282-.3953,1.2944-.1806,2.5869-.3755,4.3111-.5588l5.7474-.5794,5.7318-.6909c3.8269-.4,7.6319-.9651,11.439-1.4963,1.4606-.2036,2.9479-.24,4.4281-.3237l1.6438-.0757c1.7647-.064,3.4054-.1231,5.01-.323a13.2863,13.2863,0,0,0,3.0351-.56,23.2028,23.2028,0,0,1,4.4211-.9465c.046-.0093,2.7052-.5352,3.9621-.784l.5348-.0322a11.4256,11.4256,0,0,0,2.6989-.6848,272.5244,272.5244,0,0,0,31.5722-8.5913,102.14,102.14,0,0,1,10.8567-3.51c6.6515-1.5317,13.136-3.71,19.6135-5.7893,3.0562-.9822,4.8246-2.3653,9.0854-3.1528,1.8033-.5074,5.3-1.1485,7.0075-1.8152,3.163-1.2366,4.6721-2.0784,7.8141-3.36,6.9826-2.8481,14.0214-5.502,21.065-8.1038a33.772,33.772,0,0,1,4.1707-1.1731l1.5641-.3591c1.6816-.37,3.2412-.7048,4.7406-1.1721a15.85,15.85,0,0,0,2.8194-1.0168,21.3753,21.3753,0,0,1,4.1109-1.5325c.043-.0152,2.5265-.8811,3.7-1.2905.1668-.03.3019-.0542.5129-.0921a11.1636,11.1636,0,0,0,2.5284-.97c10.0626-3.4246,20.2051-6.4707,30.267-9.8213a74.1911,74.1911,0,0,1,10.7014-3.0537c3.29-.5251,6.5511-1.19,9.8072-1.8809,3.2667-.6281,6.5187-1.3435,9.785-1.9484,3.0835-.53,4.9841-1.6753,9.2228-1.7837,1.8223-.1927,5.2955-.2159,7.0484-.5733,3.2526-.6572,4.863-1.12,8.1255-1.76l2.7229-.5083,2.7337-.4163,5.4778-.7922c3.6584-.4632,7.3283-.8167,10.9972-1.1788a33.1414,33.1414,0,0,1,4.2516.0374c.5242.0293,1.05.0583,1.5716.0876,1.684.1138,3.2419.1966,4.7791.2312a14.9914,14.9914,0,0,0,2.9321-.114,21.0063,21.0063,0,0,1,4.2947-.23c.0112,0,.1808-.0074.4478-.0179.2668,0,.631,0,1.0318,0l2.3587-.001c.1642.0261.297.0474.5048.08a10.7175,10.7175,0,0,0,2.6528-.0959c2.61-.0444,5.2082.0981,7.81.2036l3.9034.1582c1.3.0635,2.5916.1929,3.8887.2808l3.89.2761,1.947.1255,1.8988.1765c2.5314.22,5.0731.5227,7.6208.811a52.334,52.334,0,0,1,10.6047,2.0681c6.1429,2.0877,12.37,4.0057,18.4568,6.3892,2.8616,1.1233,5.0484,1.1746,8.6191,3.3726,1.6232.8032,4.5011,2.6977,6.1465,3.3461,3.0355,1.2457,4.6248,1.7352,7.6694,2.9925a190.8517,190.8517,0,0,1,19.4765,10.07,31.26,31.26,0,0,1,3.4056,2.493l1.214.9824c1.3035,1.0471,2.45,2.1,3.6849,2.9975a14.7915,14.7915,0,0,0,2.43,1.6082,17.1291,17.1291,0,0,1,3.5385,2.3875c.036.0256,2.1191,1.517,3.1037,2.2221.117.116.2117.21.36.3572a10.5742,10.5742,0,0,0,2.1475,1.532c8.2569,6.2842,15.898,13.3149,23.5336,20.3906,1.3492,1.231,2.7024,2.4468,3.9535,3.77a44.8951,44.8951,0,0,1,3.6183,4.1314q1.4341,2.0035,2.9389,3.9458l1.5136,1.9355,1.4718,1.972,2.9786,3.9152c.9754,1.3186,1.9132,2.6665,2.8636,4.002,1.807,2.5022,3.5525,3.7954,5.3469,7.5874.9635,1.5317,2.2832,4.7244,3.2946,6.176,1.8844,2.69,2.9391,3.9824,4.76,6.7329,2.0654,3.03,3.8569,6.2386,5.74,9.3929.9043,1.5991,1.7613,3.2268,2.6389,4.843.8716,1.6194,1.7567,3.2324,2.5566,4.8916a33.1181,33.1181,0,0,1,1.5842,3.9443h0c.1726.4954.3455.992.5172,1.4856.9728,3.0242,1.6877,5.6741,3.5263,8.1563a22.1719,22.1719,0,0,1,3.8074,7.3554,68.7948,68.7948,0,0,0,2.4041,7.055q.6983,1.7277,1.3983,3.46c.4408,1.1665.8775,2.3376,1.2878,3.5227.6457,1.88,1.292,3.7011,1.8828,5.5129.5527,1.8252,1.0975,3.624,1.6421,5.4221,1.1,3.59,1.9389,7.2644,2.7769,11.1482.5048,2.2525.342,4.7185,1.1711,6.8208,1.9336,4.88,2.1294,9.71,2.9345,15.0889h17.9433C1242.91,406.22,1241.7517,402.9642,1240.8657,399.6441Z"/>
</svg>